<svg xmlns="http://www.w3.org/2000/svg" viewBox="0 0 1152 594" preserveAspectRatio="xMidYMid" width="1152" height="594" style="shape-rendering: auto; display: block; background: rgb(255, 255, 255);"><g data-idx="1"><linearGradient id="lg-0.6590519274487807" x1="0" x2="1" y1="0" y2="0" data-idx="2">
  <stop stop-color="#ff00ff" offset="0" data-idx="3"></stop>
  <stop stop-color="#00ffff" offset="1" data-idx="4"></stop>
</linearGradient><path d="M 1135.26 297 C 1135.26 452.332 830.336 578.008 683.004 626.008 C 535.672 674.008 242.352 730.984 151.02 605.652 C 59.688 480.32 55.68 110.34 147.012 -14.992 C 238.344 -140.324 549.956 -126.2 697.956 -78.2001 C 845.956 -30.2001 1135.26 141.668 1135.26 297" fill="url(#lg-0.6590519274487807)" opacity="0.4" data-idx="5">
  
</path><path d="M 1090.72 297 C 1090.72 441.684 826.008 598.636 688.324 643.308 C 550.64 687.98 305.984 672.032 220.64 555.352 C 135.296 438.672 58.268 99.64 143.612 -17.04 C 228.956 -133.72 562.708 -131.188 700.392 -86.5159 C 838.076 -41.8439 1090.72 152.316 1090.72 297" fill="url(#lg-0.6590519274487807)" opacity="0.4" data-idx="7">
  
</path><path d="M 1080.8 297 C 1080.8 440.012 833.372 627.744 697.36 671.748 C 561.348 715.752 302.324 672.356 218.316 556.68 C 134.308 441.004 131.28 150.976 215.288 35.3 C 299.296 -80.376 549.964 -86.596 685.976 -42.592 C 821.988 1.41196 1080.8 153.988 1080.8 297" fill="url(#lg-0.6590519274487807)" opacity="0.4" data-idx="9">
  
</path><path d="M 1055.82 297 C 1055.82 435.316 817.948 593.232 685.964 635.892 C 553.98 678.552 270.284 690.348 188.628 578.028 C 106.972 465.708 141.824 153.428 223.48 41.108 C 305.136 -71.2121 567.016 -125.328 699 -82.332 C 830.984 -39.336 1055.82 158.684 1055.82 297" fill="url(#lg-0.6590519274487807)" opacity="0.4" data-idx="11">
  
</path><path d="M 1101.2 297 C 1101.2 451.988 839.312 604.976 691.324 652.972 C 543.336 700.968 284.748 700.592 193.756 574.936 C 102.764 449.28 81.048 129.352 172.04 3.69599 C 263.032 -121.96 565.004 -172.312 712.66 -124.316 C 860.316 -76.32 1101.2 142.012 1101.2 297" fill="url(#lg-0.6590519274487807)" opacity="0.4" data-idx="13">
  
</path><g data-idx="15"></g></g><text data-watermark="true" text-anchor="middle" dominant-baseline="middle" stroke-opacity="0.1" fill="black" fill-opacity="0.1" stroke="white" stroke-width="1" font-size="15.0" x="576.0" y="297.0" data-idx="16" style="opacity: 1; font-size: 15px;">LOADING.IO</text></svg>